<?xml version="1.0" encoding="utf-8"?>
<!-- Generator: Adobe Illustrator 24.0.2, SVG Export Plug-In . SVG Version: 6.00 Build 0)  -->
<svg version="1.1" xmlns="http://www.w3.org/2000/svg" xmlns:xlink="http://www.w3.org/1999/xlink" x="0px" y="0px"
	 viewBox="0 0 118.08 102.96" style="enable-background:new 0 0 118.08 102.96;" xml:space="preserve">
<style type="text/css">
	.st0{fill:#EF476F;}
	.st1{fill:#FFFFFF;}
</style>
<g id="Capa_1">
</g>
<g id="Capa_3">
	<g>
		<path class="st0" d="M100.85,14.5c-4.57-5.15-10.9-8.77-18.25-8.77c0,0-0.03,0-0.08,0c-2.9,0.01-5.68,0.55-8.25,1.54
			c-5.08,1.67-11.34,5.17-15.3,12.49C55,12.44,48.74,8.94,43.66,7.27c-2.57-0.98-5.35-1.53-8.25-1.54c-0.05,0-0.08,0-0.08,0
			c-7.35,0-13.65,3.65-18.25,8.77c-32.64,36.28,38.09,85.31,41.89,84.14C62.48,100.2,133.49,51.23,100.85,14.5z"/>
		<path class="st1" d="M50.77,44.93v12.3c0,0.77,0.62,1.39,1.39,1.39l3.3,0c0.77,0,1.39-0.62,1.39-1.39v-12.3
			c0-0.77-0.62-1.39-1.39-1.39h-3.3C51.39,43.54,50.77,44.16,50.77,44.93z"/>
		<path class="st1" d="M61.8,44.93v12.29c0,0.76,0.63,1.39,1.39,1.39h3.17c0.76,0,1.39-0.63,1.39-1.39V44.93
			c0-0.76-0.63-1.39-1.39-1.39h-3.17C62.42,43.54,61.8,44.17,61.8,44.93z"/>
		<path class="st1" d="M71.32,52.39H4.33c-0.76,0-1.39,0.63-1.39,1.39v6.07c0,0.76,0.63,1.39,1.39,1.39h66.99
			c0.76,0,1.39-0.63,1.39-1.39v-6.07C72.71,53.02,72.08,52.39,71.32,52.39z"/>
		<path class="st1" d="M55.92,51.15v6.38c0,0.77,0.62,1.39,1.39,1.39h3.8c0.77,0,1.39-0.62,1.39-1.39v-6.38
			c0-0.77-0.62-1.39-1.39-1.39h-3.8C56.54,49.76,55.92,50.38,55.92,51.15z"/>
	</g>
</g>
<g id="Capa_4">
</g>
</svg>
